<svg xmlns="http://www.w3.org/2000/svg" xmlns:xlink="http://www.w3.org/1999/xlink" width="500" zoomAndPan="magnify" viewBox="0 0 375 374.999991" height="500" preserveAspectRatio="xMidYMid meet" version="1.0"><defs><clipPath id="0c5d0ab058"><path d="M 1.269531 112 L 263 112 L 263 263 L 1.269531 263 Z M 1.269531 112 " clip-rule="nonzero"/></clipPath><clipPath id="107439a4b9"><path d="M 33 37.5 L 334 37.5 L 334 337.5 L 33 337.5 Z M 33 37.5 " clip-rule="nonzero"/></clipPath><clipPath id="651dadbc28"><path d="M 333.546875 187.5 C 333.546875 189.953125 333.488281 192.410156 333.367188 194.859375 C 333.246094 197.3125 333.066406 199.757812 332.824219 202.203125 C 332.585938 204.644531 332.285156 207.082031 331.921875 209.507812 C 331.5625 211.9375 331.144531 214.355469 330.664062 216.761719 C 330.183594 219.171875 329.644531 221.566406 329.050781 223.945312 C 328.453125 226.328125 327.796875 228.695312 327.082031 231.042969 C 326.371094 233.390625 325.601562 235.722656 324.773438 238.035156 C 323.945312 240.34375 323.0625 242.632812 322.121094 244.902344 C 321.179688 247.171875 320.183594 249.414062 319.136719 251.632812 C 318.085938 253.851562 316.980469 256.042969 315.820312 258.210938 C 314.664062 260.375 313.453125 262.507812 312.191406 264.617188 C 310.925781 266.722656 309.613281 268.792969 308.25 270.835938 C 306.882812 272.875 305.46875 274.882812 304.003906 276.855469 C 302.542969 278.828125 301.03125 280.761719 299.472656 282.660156 C 297.914062 284.554688 296.308594 286.414062 294.660156 288.234375 C 293.011719 290.054688 291.316406 291.832031 289.578125 293.566406 C 287.84375 295.300781 286.0625 296.992188 284.242188 298.644531 C 282.421875 300.292969 280.5625 301.894531 278.664062 303.453125 C 276.765625 305.007812 274.828125 306.519531 272.855469 307.980469 C 270.882812 309.445312 268.875 310.855469 266.832031 312.21875 C 264.789062 313.585938 262.714844 314.898438 260.605469 316.160156 C 258.5 317.421875 256.363281 318.632812 254.195312 319.789062 C 252.027344 320.945312 249.835938 322.046875 247.613281 323.097656 C 245.394531 324.148438 243.148438 325.140625 240.878906 326.082031 C 238.609375 327.019531 236.316406 327.90625 234.003906 328.730469 C 231.691406 329.558594 229.359375 330.328125 227.007812 331.039062 C 224.65625 331.753906 222.289062 332.40625 219.90625 333.003906 C 217.523438 333.601562 215.125 334.140625 212.714844 334.617188 C 210.308594 335.097656 207.886719 335.515625 205.457031 335.875 C 203.027344 336.238281 200.589844 336.535156 198.144531 336.777344 C 195.699219 337.019531 193.25 337.199219 190.796875 337.320312 C 188.34375 337.441406 185.886719 337.5 183.429688 337.5 C 180.972656 337.5 178.519531 337.441406 176.0625 337.320312 C 173.609375 337.199219 171.160156 337.019531 168.714844 336.777344 C 166.269531 336.535156 163.832031 336.238281 161.402344 335.875 C 158.972656 335.515625 156.554688 335.097656 154.144531 334.617188 C 151.734375 334.140625 149.335938 333.601562 146.953125 333.003906 C 144.570312 332.40625 142.203125 331.753906 139.851562 331.039062 C 137.5 330.328125 135.167969 329.558594 132.855469 328.730469 C 130.542969 327.90625 128.253906 327.019531 125.980469 326.082031 C 123.710938 325.140625 121.46875 324.148438 119.246094 323.097656 C 117.023438 322.046875 114.832031 320.945312 112.664062 319.789062 C 110.5 318.632812 108.359375 317.421875 106.253906 316.160156 C 104.148438 314.898438 102.070312 313.585938 100.027344 312.21875 C 97.984375 310.855469 95.976562 309.445312 94.003906 307.980469 C 92.03125 306.519531 90.09375 305.007812 88.195312 303.453125 C 86.296875 301.894531 84.4375 300.292969 82.617188 298.644531 C 80.796875 296.992188 79.019531 295.300781 77.28125 293.566406 C 75.542969 291.832031 73.851562 290.054688 72.199219 288.234375 C 70.550781 286.414062 68.945312 284.554688 67.386719 282.660156 C 65.828125 280.761719 64.316406 278.828125 62.855469 276.855469 C 61.390625 274.882812 59.976562 272.875 58.613281 270.835938 C 57.246094 268.792969 55.933594 266.722656 54.667969 264.617188 C 53.40625 262.507812 52.195312 260.375 51.039062 258.210938 C 49.878906 256.042969 48.773438 253.851562 47.726562 251.632812 C 46.675781 249.414062 45.679688 247.171875 44.738281 244.902344 C 43.796875 242.632812 42.914062 240.34375 42.085938 238.035156 C 41.257812 235.722656 40.488281 233.390625 39.777344 231.042969 C 39.0625 228.695312 38.40625 226.328125 37.8125 223.945312 C 37.214844 221.566406 36.675781 219.171875 36.195312 216.761719 C 35.71875 214.355469 35.296875 211.9375 34.9375 209.507812 C 34.578125 207.082031 34.277344 204.644531 34.035156 202.203125 C 33.792969 199.757812 33.613281 197.3125 33.492188 194.859375 C 33.371094 192.410156 33.3125 189.953125 33.3125 187.5 C 33.3125 185.046875 33.371094 182.589844 33.492188 180.140625 C 33.613281 177.6875 33.792969 175.242188 34.035156 172.796875 C 34.277344 170.355469 34.578125 167.917969 34.9375 165.492188 C 35.296875 163.0625 35.71875 160.644531 36.195312 158.238281 C 36.675781 155.828125 37.214844 153.433594 37.8125 151.054688 C 38.40625 148.671875 39.0625 146.304688 39.777344 143.957031 C 40.488281 141.609375 41.257812 139.277344 42.085938 136.964844 C 42.914062 134.65625 43.796875 132.367188 44.738281 130.097656 C 45.679688 127.828125 46.675781 125.585938 47.726562 123.367188 C 48.773438 121.148438 49.878906 118.957031 51.039062 116.789062 C 52.195312 114.625 53.40625 112.488281 54.667969 110.382812 C 55.933594 108.277344 57.246094 106.207031 58.613281 104.164062 C 59.976562 102.125 61.390625 100.117188 62.855469 98.144531 C 64.316406 96.171875 65.828125 94.238281 67.386719 92.339844 C 68.945312 90.445312 70.550781 88.585938 72.199219 86.765625 C 73.851562 84.945312 75.542969 83.167969 77.28125 81.433594 C 79.019531 79.699219 80.796875 78.007812 82.617188 76.355469 C 84.4375 74.707031 86.296875 73.105469 88.195312 71.546875 C 90.09375 69.992188 92.03125 68.480469 94.003906 67.019531 C 95.976562 65.554688 97.984375 64.144531 100.027344 62.78125 C 102.070312 61.414062 104.148438 60.101562 106.253906 58.839844 C 108.359375 57.578125 110.5 56.367188 112.664062 55.210938 C 114.832031 54.054688 117.023438 52.953125 119.246094 51.902344 C 121.46875 50.851562 123.710938 49.859375 125.980469 48.917969 C 128.253906 47.980469 130.542969 47.09375 132.855469 46.269531 C 135.167969 45.441406 137.5 44.671875 139.851562 43.957031 C 142.203125 43.246094 144.570312 42.589844 146.953125 41.996094 C 149.335938 41.398438 151.734375 40.859375 154.144531 40.382812 C 156.554688 39.902344 158.972656 39.484375 161.402344 39.125 C 163.832031 38.761719 166.269531 38.464844 168.714844 38.222656 C 171.160156 37.980469 173.609375 37.800781 176.0625 37.679688 C 178.519531 37.558594 180.972656 37.5 183.429688 37.5 C 185.886719 37.5 188.34375 37.558594 190.796875 37.679688 C 193.25 37.800781 195.699219 37.980469 198.144531 38.222656 C 200.589844 38.464844 203.027344 38.761719 205.457031 39.125 C 207.886719 39.484375 210.308594 39.902344 212.714844 40.382812 C 215.125 40.859375 217.523438 41.398438 219.90625 41.996094 C 222.289062 42.589844 224.65625 43.246094 227.007812 43.957031 C 229.359375 44.671875 231.691406 45.441406 234.003906 46.269531 C 236.316406 47.09375 238.609375 47.980469 240.878906 48.917969 C 243.148438 49.859375 245.394531 50.851562 247.613281 51.902344 C 249.835938 52.953125 252.027344 54.054688 254.195312 55.210938 C 256.363281 56.367188 258.5 57.578125 260.605469 58.839844 C 262.714844 60.101562 264.789062 61.414062 266.832031 62.78125 C 268.875 64.144531 270.882812 65.554688 272.855469 67.019531 C 274.828125 68.480469 276.765625 69.992188 278.664062 71.546875 C 280.5625 73.105469 282.421875 74.707031 284.242188 76.355469 C 286.0625 78.007812 287.84375 79.699219 289.578125 81.433594 C 291.316406 83.167969 293.011719 84.945312 294.660156 86.765625 C 296.308594 88.585938 297.914062 90.445312 299.472656 92.339844 C 301.03125 94.238281 302.542969 96.171875 304.003906 98.144531 C 305.46875 100.117188 306.882812 102.125 308.25 104.164062 C 309.613281 106.207031 310.925781 108.277344 312.191406 110.382812 C 313.453125 112.488281 314.664062 114.625 315.820312 116.789062 C 316.980469 118.957031 318.085938 121.148438 319.136719 123.367188 C 320.183594 125.585938 321.179688 127.828125 322.121094 130.097656 C 323.0625 132.367188 323.945312 134.65625 324.773438 136.964844 C 325.601562 139.277344 326.371094 141.609375 327.082031 143.957031 C 327.796875 146.304688 328.453125 148.671875 329.050781 151.054688 C 329.644531 153.433594 330.183594 155.828125 330.664062 158.238281 C 331.144531 160.644531 331.5625 163.0625 331.921875 165.492188 C 332.285156 167.917969 332.585938 170.355469 332.824219 172.796875 C 333.066406 175.242188 333.246094 177.6875 333.367188 180.140625 C 333.488281 182.589844 333.546875 185.046875 333.546875 187.5 Z M 333.546875 187.5 " clip-rule="nonzero"/></clipPath><linearGradient x1="50.533286" gradientTransform="matrix(1.28306, 0, 0, 1.282051, 1.325243, 37.499999)" y1="-17.40956" x2="233.324257" gradientUnits="userSpaceOnUse" y2="251.411211" id="ef5f63cf75"><stop stop-opacity="1" stop-color="rgb(95.698547%, 100%, 8.198547%)" offset="0"/><stop stop-opacity="1" stop-color="rgb(95.698547%, 100%, 8.198547%)" offset="0.015625"/><stop stop-opacity="1" stop-color="rgb(95.698547%, 100%, 8.198547%)" offset="0.0234375"/><stop stop-opacity="1" stop-color="rgb(95.397949%, 99.945068%, 8.198547%)" offset="0.0273437"/><stop stop-opacity="1" stop-color="rgb(95.098877%, 99.890137%, 8.198547%)" offset="0.03125"/><stop stop-opacity="1" stop-color="rgb(94.636536%, 99.804688%, 8.198547%)" offset="0.0351562"/><stop stop-opacity="1" stop-color="rgb(94.174194%, 99.720764%, 8.198547%)" offset="0.0390625"/><stop stop-opacity="1" stop-color="rgb(93.710327%, 99.636841%, 8.198547%)" offset="0.0429687"/><stop stop-opacity="1" stop-color="rgb(93.247986%, 99.552917%, 8.198547%)" offset="0.046875"/><stop stop-opacity="1" stop-color="rgb(92.785645%, 99.467468%, 8.198547%)" offset="0.0507813"/><stop stop-opacity="1" stop-color="rgb(92.323303%, 99.383545%, 8.198547%)" offset="0.0546875"/><stop stop-opacity="1" stop-color="rgb(91.859436%, 99.299622%, 8.198547%)" offset="0.0585938"/><stop stop-opacity="1" stop-color="rgb(91.397095%, 99.215698%, 8.198547%)" offset="0.0625"/><stop stop-opacity="1" stop-color="rgb(90.933228%, 99.130249%, 8.198547%)" offset="0.0664062"/><stop stop-opacity="1" stop-color="rgb(90.470886%, 99.046326%, 8.198547%)" offset="0.0703125"/><stop stop-opacity="1" stop-color="rgb(90.008545%, 98.962402%, 8.198547%)" offset="0.0742188"/><stop stop-opacity="1" stop-color="rgb(89.546204%, 98.878479%, 8.198547%)" offset="0.078125"/><stop stop-opacity="1" stop-color="rgb(89.082336%, 98.79303%, 8.198547%)" offset="0.0820312"/><stop stop-opacity="1" stop-color="rgb(88.619995%, 98.709106%, 8.198547%)" offset="0.0859375"/><stop stop-opacity="1" stop-color="rgb(88.157654%, 98.625183%, 8.198547%)" offset="0.0898437"/><stop stop-opacity="1" stop-color="rgb(87.695312%, 98.54126%, 8.198547%)" offset="0.09375"/><stop stop-opacity="1" stop-color="rgb(87.231445%, 98.455811%, 8.198547%)" offset="0.0976563"/><stop stop-opacity="1" stop-color="rgb(86.769104%, 98.371887%, 8.198547%)" offset="0.101563"/><stop stop-opacity="1" stop-color="rgb(86.305237%, 98.287964%, 8.198547%)" offset="0.105469"/><stop stop-opacity="1" stop-color="rgb(85.842896%, 98.204041%, 8.198547%)" offset="0.109375"/><stop stop-opacity="1" stop-color="rgb(85.380554%, 98.118591%, 8.198547%)" offset="0.113281"/><stop stop-opacity="1" stop-color="rgb(84.918213%, 98.034668%, 8.198547%)" offset="0.117188"/><stop stop-opacity="1" stop-color="rgb(84.454346%, 97.950745%, 8.198547%)" offset="0.121094"/><stop stop-opacity="1" stop-color="rgb(83.992004%, 97.866821%, 8.198547%)" offset="0.125"/><stop stop-opacity="1" stop-color="rgb(83.528137%, 97.781372%, 8.198547%)" offset="0.128906"/><stop stop-opacity="1" stop-color="rgb(83.065796%, 97.697449%, 8.198547%)" offset="0.132813"/><stop stop-opacity="1" stop-color="rgb(82.603455%, 97.613525%, 8.198547%)" offset="0.136719"/><stop stop-opacity="1" stop-color="rgb(82.141113%, 97.529602%, 8.198547%)" offset="0.140625"/><stop stop-opacity="1" stop-color="rgb(81.677246%, 97.444153%, 8.198547%)" offset="0.144531"/><stop stop-opacity="1" stop-color="rgb(81.214905%, 97.360229%, 8.198547%)" offset="0.148438"/><stop stop-opacity="1" stop-color="rgb(80.752563%, 97.276306%, 8.198547%)" offset="0.152344"/><stop stop-opacity="1" stop-color="rgb(80.290222%, 97.192383%, 8.198547%)" offset="0.15625"/><stop stop-opacity="1" stop-color="rgb(79.826355%, 97.106934%, 8.198547%)" offset="0.160156"/><stop stop-opacity="1" stop-color="rgb(79.364014%, 97.02301%, 8.198547%)" offset="0.164062"/><stop stop-opacity="1" stop-color="rgb(78.900146%, 96.939087%, 8.198547%)" offset="0.167969"/><stop stop-opacity="1" stop-color="rgb(78.437805%, 96.855164%, 8.198547%)" offset="0.171875"/><stop stop-opacity="1" stop-color="rgb(77.975464%, 96.769714%, 8.198547%)" offset="0.175781"/><stop stop-opacity="1" stop-color="rgb(77.513123%, 96.685791%, 8.198547%)" offset="0.179687"/><stop stop-opacity="1" stop-color="rgb(77.049255%, 96.601868%, 8.198547%)" offset="0.183594"/><stop stop-opacity="1" stop-color="rgb(76.586914%, 96.517944%, 8.198547%)" offset="0.1875"/><stop stop-opacity="1" stop-color="rgb(76.124573%, 96.432495%, 8.198547%)" offset="0.191406"/><stop stop-opacity="1" stop-color="rgb(75.662231%, 96.348572%, 8.198547%)" offset="0.195312"/><stop stop-opacity="1" stop-color="rgb(75.198364%, 96.264648%, 8.198547%)" offset="0.199219"/><stop stop-opacity="1" stop-color="rgb(74.736023%, 96.180725%, 8.198547%)" offset="0.203125"/><stop stop-opacity="1" stop-color="rgb(74.272156%, 96.095276%, 8.198547%)" offset="0.207031"/><stop stop-opacity="1" stop-color="rgb(73.809814%, 96.011353%, 8.198547%)" offset="0.210937"/><stop stop-opacity="1" stop-color="rgb(73.347473%, 95.927429%, 8.198547%)" offset="0.214844"/><stop stop-opacity="1" stop-color="rgb(72.885132%, 95.843506%, 8.198547%)" offset="0.21875"/><stop stop-opacity="1" stop-color="rgb(72.421265%, 95.758057%, 8.198547%)" offset="0.222656"/><stop stop-opacity="1" stop-color="rgb(71.958923%, 95.674133%, 8.198547%)" offset="0.226562"/><stop stop-opacity="1" stop-color="rgb(71.496582%, 95.59021%, 8.198547%)" offset="0.230469"/><stop stop-opacity="1" stop-color="rgb(71.034241%, 95.506287%, 8.198547%)" offset="0.234375"/><stop stop-opacity="1" stop-color="rgb(70.570374%, 95.420837%, 8.198547%)" offset="0.238281"/><stop stop-opacity="1" stop-color="rgb(70.108032%, 95.336914%, 8.198547%)" offset="0.242187"/><stop stop-opacity="1" stop-color="rgb(69.644165%, 95.252991%, 8.198547%)" offset="0.246094"/><stop stop-opacity="1" stop-color="rgb(69.181824%, 95.169067%, 8.198547%)" offset="0.25"/><stop stop-opacity="1" stop-color="rgb(68.719482%, 95.083618%, 8.198547%)" offset="0.253906"/><stop stop-opacity="1" stop-color="rgb(68.257141%, 94.999695%, 8.198547%)" offset="0.257812"/><stop stop-opacity="1" stop-color="rgb(67.793274%, 94.915771%, 8.198547%)" offset="0.261719"/><stop stop-opacity="1" stop-color="rgb(67.330933%, 94.831848%, 8.198547%)" offset="0.265625"/><stop stop-opacity="1" stop-color="rgb(66.868591%, 94.746399%, 8.198547%)" offset="0.269531"/><stop stop-opacity="1" stop-color="rgb(66.40625%, 94.662476%, 8.198547%)" offset="0.273437"/><stop stop-opacity="1" stop-color="rgb(65.942383%, 94.578552%, 8.198547%)" offset="0.277344"/><stop stop-opacity="1" stop-color="rgb(65.480042%, 94.494629%, 8.198547%)" offset="0.28125"/><stop stop-opacity="1" stop-color="rgb(65.016174%, 94.40918%, 8.198547%)" offset="0.285156"/><stop stop-opacity="1" stop-color="rgb(64.553833%, 94.325256%, 8.198547%)" offset="0.289062"/><stop stop-opacity="1" stop-color="rgb(64.091492%, 94.241333%, 8.198547%)" offset="0.292969"/><stop stop-opacity="1" stop-color="rgb(63.62915%, 94.15741%, 8.198547%)" offset="0.296875"/><stop stop-opacity="1" stop-color="rgb(63.165283%, 94.07196%, 8.198547%)" offset="0.300781"/><stop stop-opacity="1" stop-color="rgb(62.702942%, 93.988037%, 8.198547%)" offset="0.304687"/><stop stop-opacity="1" stop-color="rgb(62.240601%, 93.904114%, 8.198547%)" offset="0.308594"/><stop stop-opacity="1" stop-color="rgb(61.778259%, 93.82019%, 8.198547%)" offset="0.3125"/><stop stop-opacity="1" stop-color="rgb(61.314392%, 93.734741%, 8.198547%)" offset="0.316406"/><stop stop-opacity="1" stop-color="rgb(60.852051%, 93.650818%, 8.198547%)" offset="0.320312"/><stop stop-opacity="1" stop-color="rgb(60.388184%, 93.566895%, 8.198547%)" offset="0.324219"/><stop stop-opacity="1" stop-color="rgb(59.925842%, 93.482971%, 8.198547%)" offset="0.328125"/><stop stop-opacity="1" stop-color="rgb(59.463501%, 93.397522%, 8.198547%)" offset="0.332031"/><stop stop-opacity="1" stop-color="rgb(59.00116%, 93.313599%, 8.198547%)" offset="0.335938"/><stop stop-opacity="1" stop-color="rgb(58.537292%, 93.229675%, 8.198547%)" offset="0.339844"/><stop stop-opacity="1" stop-color="rgb(58.074951%, 93.145752%, 8.198547%)" offset="0.34375"/><stop stop-opacity="1" stop-color="rgb(57.61261%, 93.060303%, 8.198547%)" offset="0.347656"/><stop stop-opacity="1" stop-color="rgb(57.150269%, 92.976379%, 8.198547%)" offset="0.351563"/><stop stop-opacity="1" stop-color="rgb(56.686401%, 92.892456%, 8.198547%)" offset="0.355469"/><stop stop-opacity="1" stop-color="rgb(56.22406%, 92.808533%, 8.198547%)" offset="0.359375"/><stop stop-opacity="1" stop-color="rgb(55.760193%, 92.723083%, 8.198547%)" offset="0.363281"/><stop stop-opacity="1" stop-color="rgb(55.297852%, 92.63916%, 8.198547%)" offset="0.367188"/><stop stop-opacity="1" stop-color="rgb(54.83551%, 92.555237%, 8.198547%)" offset="0.371094"/><stop stop-opacity="1" stop-color="rgb(54.373169%, 92.471313%, 8.198547%)" offset="0.375"/><stop stop-opacity="1" stop-color="rgb(53.909302%, 92.385864%, 8.198547%)" offset="0.378906"/><stop stop-opacity="1" stop-color="rgb(53.44696%, 92.301941%, 8.198547%)" offset="0.382813"/><stop stop-opacity="1" stop-color="rgb(52.984619%, 92.218018%, 8.198547%)" offset="0.386719"/><stop stop-opacity="1" stop-color="rgb(52.522278%, 92.134094%, 8.198547%)" offset="0.390625"/><stop stop-opacity="1" stop-color="rgb(52.058411%, 92.048645%, 8.198547%)" offset="0.394531"/><stop stop-opacity="1" stop-color="rgb(51.596069%, 91.964722%, 8.198547%)" offset="0.398438"/><stop stop-opacity="1" stop-color="rgb(51.132202%, 91.880798%, 8.198547%)" offset="0.402344"/><stop stop-opacity="1" stop-color="rgb(50.669861%, 91.796875%, 8.198547%)" offset="0.40625"/><stop stop-opacity="1" stop-color="rgb(50.20752%, 91.711426%, 8.198547%)" offset="0.410156"/><stop stop-opacity="1" stop-color="rgb(49.745178%, 91.627502%, 8.198547%)" offset="0.414062"/><stop stop-opacity="1" stop-color="rgb(49.281311%, 91.543579%, 8.198547%)" offset="0.417969"/><stop stop-opacity="1" stop-color="rgb(48.81897%, 91.459656%, 8.198547%)" offset="0.421875"/><stop stop-opacity="1" stop-color="rgb(48.356628%, 91.374207%, 8.198547%)" offset="0.425781"/><stop stop-opacity="1" stop-color="rgb(47.894287%, 91.290283%, 8.198547%)" offset="0.429688"/><stop stop-opacity="1" stop-color="rgb(47.43042%, 91.20636%, 8.198547%)" offset="0.433594"/><stop stop-opacity="1" stop-color="rgb(46.968079%, 91.122437%, 8.198547%)" offset="0.4375"/><stop stop-opacity="1" stop-color="rgb(46.504211%, 91.036987%, 8.198547%)" offset="0.441406"/><stop stop-opacity="1" stop-color="rgb(46.04187%, 90.953064%, 8.198547%)" offset="0.445312"/><stop stop-opacity="1" stop-color="rgb(45.579529%, 90.869141%, 8.198547%)" offset="0.449219"/><stop stop-opacity="1" stop-color="rgb(45.117188%, 90.785217%, 8.198547%)" offset="0.453125"/><stop stop-opacity="1" stop-color="rgb(44.65332%, 90.699768%, 8.198547%)" offset="0.457031"/><stop stop-opacity="1" stop-color="rgb(44.190979%, 90.615845%, 8.198547%)" offset="0.460938"/><stop stop-opacity="1" stop-color="rgb(43.728638%, 90.531921%, 8.198547%)" offset="0.464844"/><stop stop-opacity="1" stop-color="rgb(43.266296%, 90.447998%, 8.198547%)" offset="0.46875"/><stop stop-opacity="1" stop-color="rgb(42.802429%, 90.362549%, 8.198547%)" offset="0.472656"/><stop stop-opacity="1" stop-color="rgb(42.340088%, 90.278625%, 8.198547%)" offset="0.476562"/><stop stop-opacity="1" stop-color="rgb(41.876221%, 90.194702%, 8.198547%)" offset="0.480469"/><stop stop-opacity="1" stop-color="rgb(41.413879%, 90.110779%, 8.198547%)" offset="0.484375"/><stop stop-opacity="1" stop-color="rgb(40.951538%, 90.02533%, 8.198547%)" offset="0.488281"/><stop stop-opacity="1" stop-color="rgb(40.489197%, 89.941406%, 8.198547%)" offset="0.492188"/><stop stop-opacity="1" stop-color="rgb(40.02533%, 89.857483%, 8.198547%)" offset="0.496094"/><stop stop-opacity="1" stop-color="rgb(39.562988%, 89.77356%, 8.198547%)" offset="0.5"/><stop stop-opacity="1" stop-color="rgb(39.100647%, 89.68811%, 8.198547%)" offset="0.503906"/><stop stop-opacity="1" stop-color="rgb(38.638306%, 89.604187%, 8.198547%)" offset="0.507812"/><stop stop-opacity="1" stop-color="rgb(38.174438%, 89.520264%, 8.198547%)" offset="0.511719"/><stop stop-opacity="1" stop-color="rgb(37.712097%, 89.43634%, 8.198547%)" offset="0.515625"/><stop stop-opacity="1" stop-color="rgb(37.24823%, 89.350891%, 8.198547%)" offset="0.519531"/><stop stop-opacity="1" stop-color="rgb(36.785889%, 89.266968%, 8.198547%)" offset="0.523438"/><stop stop-opacity="1" stop-color="rgb(36.323547%, 89.183044%, 8.198547%)" offset="0.527344"/><stop stop-opacity="1" stop-color="rgb(35.861206%, 89.099121%, 8.198547%)" offset="0.53125"/><stop stop-opacity="1" stop-color="rgb(35.397339%, 89.013672%, 8.198547%)" offset="0.535156"/><stop stop-opacity="1" stop-color="rgb(34.934998%, 88.929749%, 8.198547%)" offset="0.539062"/><stop stop-opacity="1" stop-color="rgb(34.472656%, 88.845825%, 8.198547%)" offset="0.542969"/><stop stop-opacity="1" stop-color="rgb(34.010315%, 88.761902%, 8.198547%)" offset="0.546875"/><stop stop-opacity="1" stop-color="rgb(33.546448%, 88.676453%, 8.198547%)" offset="0.550781"/><stop stop-opacity="1" stop-color="rgb(33.084106%, 88.592529%, 8.198547%)" offset="0.554688"/><stop stop-opacity="1" stop-color="rgb(32.620239%, 88.508606%, 8.198547%)" offset="0.558594"/><stop stop-opacity="1" stop-color="rgb(32.157898%, 88.424683%, 8.198547%)" offset="0.5625"/><stop stop-opacity="1" stop-color="rgb(31.695557%, 88.339233%, 8.198547%)" offset="0.566406"/><stop stop-opacity="1" stop-color="rgb(31.233215%, 88.25531%, 8.198547%)" offset="0.570312"/><stop stop-opacity="1" stop-color="rgb(30.769348%, 88.171387%, 8.198547%)" offset="0.574219"/><stop stop-opacity="1" stop-color="rgb(30.307007%, 88.087463%, 8.198547%)" offset="0.578125"/><stop stop-opacity="1" stop-color="rgb(29.844666%, 88.002014%, 8.198547%)" offset="0.582031"/><stop stop-opacity="1" stop-color="rgb(29.382324%, 87.918091%, 8.198547%)" offset="0.585938"/><stop stop-opacity="1" stop-color="rgb(28.918457%, 87.834167%, 8.198547%)" offset="0.589844"/><stop stop-opacity="1" stop-color="rgb(28.456116%, 87.750244%, 8.198547%)" offset="0.59375"/><stop stop-opacity="1" stop-color="rgb(27.992249%, 87.664795%, 8.198547%)" offset="0.597656"/><stop stop-opacity="1" stop-color="rgb(27.529907%, 87.580872%, 8.198547%)" offset="0.601562"/><stop stop-opacity="1" stop-color="rgb(27.067566%, 87.496948%, 8.198547%)" offset="0.605469"/><stop stop-opacity="1" stop-color="rgb(26.605225%, 87.413025%, 8.198547%)" offset="0.609375"/><stop stop-opacity="1" stop-color="rgb(26.141357%, 87.327576%, 8.198547%)" offset="0.613281"/><stop stop-opacity="1" stop-color="rgb(25.679016%, 87.243652%, 8.198547%)" offset="0.617188"/><stop stop-opacity="1" stop-color="rgb(25.216675%, 87.159729%, 8.198547%)" offset="0.621094"/><stop stop-opacity="1" stop-color="rgb(24.754333%, 87.075806%, 8.198547%)" offset="0.625"/><stop stop-opacity="1" stop-color="rgb(24.290466%, 86.990356%, 8.198547%)" offset="0.628906"/><stop stop-opacity="1" stop-color="rgb(23.828125%, 86.906433%, 8.198547%)" offset="0.632813"/><stop stop-opacity="1" stop-color="rgb(23.364258%, 86.82251%, 8.198547%)" offset="0.636719"/><stop stop-opacity="1" stop-color="rgb(22.901917%, 86.738586%, 8.198547%)" offset="0.640625"/><stop stop-opacity="1" stop-color="rgb(22.439575%, 86.653137%, 8.198547%)" offset="0.644531"/><stop stop-opacity="1" stop-color="rgb(21.977234%, 86.569214%, 8.198547%)" offset="0.648438"/><stop stop-opacity="1" stop-color="rgb(21.513367%, 86.485291%, 8.198547%)" offset="0.652344"/><stop stop-opacity="1" stop-color="rgb(21.051025%, 86.401367%, 8.198547%)" offset="0.65625"/><stop stop-opacity="1" stop-color="rgb(20.588684%, 86.315918%, 8.198547%)" offset="0.660156"/><stop stop-opacity="1" stop-color="rgb(20.126343%, 86.231995%, 8.198547%)" offset="0.664063"/><stop stop-opacity="1" stop-color="rgb(19.662476%, 86.148071%, 8.198547%)" offset="0.667969"/><stop stop-opacity="1" stop-color="rgb(19.200134%, 86.064148%, 8.198547%)" offset="0.671875"/><stop stop-opacity="1" stop-color="rgb(18.736267%, 85.978699%, 8.198547%)" offset="0.675781"/><stop stop-opacity="1" stop-color="rgb(18.273926%, 85.894775%, 8.198547%)" offset="0.679688"/><stop stop-opacity="1" stop-color="rgb(17.811584%, 85.810852%, 8.198547%)" offset="0.683594"/><stop stop-opacity="1" stop-color="rgb(17.349243%, 85.726929%, 8.198547%)" offset="0.6875"/><stop stop-opacity="1" stop-color="rgb(16.885376%, 85.641479%, 8.198547%)" offset="0.691406"/><stop stop-opacity="1" stop-color="rgb(16.423035%, 85.557556%, 8.198547%)" offset="0.695313"/><stop stop-opacity="1" stop-color="rgb(16.261292%, 85.528564%, 8.198547%)" offset="0.703125"/><stop stop-opacity="1" stop-color="rgb(16.099548%, 85.499573%, 8.198547%)" offset="0.71875"/><stop stop-opacity="1" stop-color="rgb(16.099548%, 85.499573%, 8.198547%)" offset="0.75"/><stop stop-opacity="1" stop-color="rgb(16.099548%, 85.499573%, 8.198547%)" offset="1"/></linearGradient><clipPath id="f3e98e1edf"><path d="M 112 112 L 374 112 L 374 263 L 112 263 Z M 112 112 " clip-rule="nonzero"/></clipPath><clipPath id="4bd84b8b81"><path d="M 112.308594 190.882812 C 112.398438 156.347656 132.839844 127.640625 162.167969 116.972656 C 163.96875 116.324219 165.789062 115.746094 167.632812 115.234375 C 169.472656 114.726562 171.332031 114.289062 173.210938 113.917969 C 175.085938 113.550781 176.972656 113.257812 178.871094 113.035156 C 180.769531 112.808594 182.675781 112.660156 184.585938 112.582031 C 186.496094 112.503906 188.40625 112.5 190.316406 112.566406 C 192.226562 112.636719 194.132812 112.777344 196.035156 112.992188 C 197.933594 113.203125 199.824219 113.492188 201.699219 113.847656 C 203.578125 114.207031 205.441406 114.636719 207.285156 115.136719 C 209.128906 115.640625 210.953125 116.210938 212.753906 116.847656 C 214.554688 117.488281 216.332031 118.199219 218.078125 118.972656 C 219.824219 119.75 221.539062 120.589844 223.222656 121.496094 C 224.90625 122.402344 226.550781 123.375 228.160156 124.40625 C 229.769531 125.4375 231.335938 126.53125 232.859375 127.683594 C 234.386719 128.835938 235.863281 130.046875 237.296875 131.3125 C 238.730469 132.578125 240.109375 133.894531 241.441406 135.265625 C 242.773438 136.636719 244.050781 138.058594 245.273438 139.527344 C 247.363281 142.011719 249.226562 144.652344 251.113281 147.359375 C 267.703125 170.808594 289.679688 174.667969 313.289062 158.242188 C 334.226562 143.679688 362.648438 151.398438 371.449219 174.027344 C 372.152344 175.835938 372.707031 177.6875 373.117188 179.582031 C 373.527344 181.476562 373.785156 183.394531 373.894531 185.332031 C 374.003906 187.269531 373.960938 189.199219 373.761719 191.128906 C 373.566406 193.058594 373.222656 194.964844 372.726562 196.839844 C 372.230469 198.714844 371.59375 200.539062 370.808594 202.3125 C 370.027344 204.089844 369.109375 205.792969 368.058594 207.421875 C 367.011719 209.054688 365.839844 210.59375 364.546875 212.039062 C 363.253906 213.488281 361.855469 214.824219 360.351562 216.050781 C 348.316406 225.9375 329.183594 226.5625 315.699219 218.742188 C 307.4375 213.949219 298.480469 208.667969 289.332031 207.449219 C 271.191406 205.039062 259.347656 215.882812 249.175781 230.128906 C 230.324219 256.527344 203.957031 267.308594 172.191406 260.652344 C 141.5 254.167969 122.445312 234.21875 114.15625 204.167969 C 112.65625 198.730469 112.578125 192.910156 112.308594 190.882812 Z M 112.308594 190.882812 " clip-rule="nonzero"/></clipPath><linearGradient x1="128.042204" gradientTransform="matrix(1.28306, 0, 0, 1.282051, 1.325243, 37.499999)" y1="30.803281" x2="246.535251" gradientUnits="userSpaceOnUse" y2="208.534685" id="7cb280fa11"><stop stop-opacity="1" stop-color="rgb(50.160217%, 70.309448%, 96.447754%)" offset="0"/><stop stop-opacity="1" stop-color="rgb(50.109863%, 69.940186%, 96.382141%)" offset="0.00390625"/><stop stop-opacity="1" stop-color="rgb(50.059509%, 69.570923%, 96.318054%)" offset="0.0078125"/><stop stop-opacity="1" stop-color="rgb(50.009155%, 69.200134%, 96.252441%)" offset="0.0117188"/><stop stop-opacity="1" stop-color="rgb(49.960327%, 68.830872%, 96.186829%)" offset="0.015625"/><stop stop-opacity="1" stop-color="rgb(49.909973%, 68.461609%, 96.121216%)" offset="0.0195313"/><stop stop-opacity="1" stop-color="rgb(49.859619%, 68.092346%, 96.055603%)" offset="0.0234375"/><stop stop-opacity="1" stop-color="rgb(49.809265%, 67.721558%, 95.98999%)" offset="0.0273438"/><stop stop-opacity="1" stop-color="rgb(49.760437%, 67.352295%, 95.925903%)" offset="0.03125"/><stop stop-opacity="1" stop-color="rgb(49.710083%, 66.983032%, 95.860291%)" offset="0.0351563"/><stop stop-opacity="1" stop-color="rgb(49.659729%, 66.61377%, 95.794678%)" offset="0.0390625"/><stop stop-opacity="1" stop-color="rgb(49.609375%, 66.242981%, 95.729065%)" offset="0.0429688"/><stop stop-opacity="1" stop-color="rgb(49.560547%, 65.873718%, 95.663452%)" offset="0.046875"/><stop stop-opacity="1" stop-color="rgb(49.510193%, 65.504456%, 95.597839%)" offset="0.0507813"/><stop stop-opacity="1" stop-color="rgb(49.459839%, 65.135193%, 95.533752%)" offset="0.0546875"/><stop stop-opacity="1" stop-color="rgb(49.409485%, 64.764404%, 95.46814%)" offset="0.0585938"/><stop stop-opacity="1" stop-color="rgb(49.360657%, 64.395142%, 95.402527%)" offset="0.0625"/><stop stop-opacity="1" stop-color="rgb(49.310303%, 64.025879%, 95.336914%)" offset="0.0664062"/><stop stop-opacity="1" stop-color="rgb(49.259949%, 63.656616%, 95.271301%)" offset="0.0703125"/><stop stop-opacity="1" stop-color="rgb(49.209595%, 63.285828%, 95.205688%)" offset="0.0742188"/><stop stop-opacity="1" stop-color="rgb(49.160767%, 62.916565%, 95.141602%)" offset="0.078125"/><stop stop-opacity="1" stop-color="rgb(49.110413%, 62.547302%, 95.075989%)" offset="0.0820312"/><stop stop-opacity="1" stop-color="rgb(49.060059%, 62.17804%, 95.010376%)" offset="0.0859375"/><stop stop-opacity="1" stop-color="rgb(49.009705%, 61.807251%, 94.944763%)" offset="0.0898438"/><stop stop-opacity="1" stop-color="rgb(48.960876%, 61.437988%, 94.87915%)" offset="0.09375"/><stop stop-opacity="1" stop-color="rgb(48.910522%, 61.068726%, 94.813538%)" offset="0.0976563"/><stop stop-opacity="1" stop-color="rgb(48.860168%, 60.699463%, 94.749451%)" offset="0.101563"/><stop stop-opacity="1" stop-color="rgb(48.809814%, 60.328674%, 94.683838%)" offset="0.105469"/><stop stop-opacity="1" stop-color="rgb(48.760986%, 59.959412%, 94.618225%)" offset="0.109375"/><stop stop-opacity="1" stop-color="rgb(48.710632%, 59.590149%, 94.552612%)" offset="0.113281"/><stop stop-opacity="1" stop-color="rgb(48.660278%, 59.220886%, 94.487%)" offset="0.117188"/><stop stop-opacity="1" stop-color="rgb(48.609924%, 58.850098%, 94.421387%)" offset="0.121094"/><stop stop-opacity="1" stop-color="rgb(48.561096%, 58.480835%, 94.3573%)" offset="0.125"/><stop stop-opacity="1" stop-color="rgb(48.510742%, 58.111572%, 94.291687%)" offset="0.128906"/><stop stop-opacity="1" stop-color="rgb(48.461914%, 57.74231%, 94.226074%)" offset="0.132812"/><stop stop-opacity="1" stop-color="rgb(48.41156%, 57.371521%, 94.160461%)" offset="0.136719"/><stop stop-opacity="1" stop-color="rgb(48.361206%, 57.002258%, 94.096375%)" offset="0.140625"/><stop stop-opacity="1" stop-color="rgb(48.310852%, 56.632996%, 94.030762%)" offset="0.144531"/><stop stop-opacity="1" stop-color="rgb(48.262024%, 56.263733%, 93.965149%)" offset="0.148438"/><stop stop-opacity="1" stop-color="rgb(48.21167%, 55.892944%, 93.899536%)" offset="0.152344"/><stop stop-opacity="1" stop-color="rgb(48.161316%, 55.523682%, 93.833923%)" offset="0.15625"/><stop stop-opacity="1" stop-color="rgb(48.110962%, 55.154419%, 93.768311%)" offset="0.160156"/><stop stop-opacity="1" stop-color="rgb(48.062134%, 54.785156%, 93.704224%)" offset="0.164062"/><stop stop-opacity="1" stop-color="rgb(48.01178%, 54.414368%, 93.638611%)" offset="0.167969"/><stop stop-opacity="1" stop-color="rgb(47.961426%, 54.045105%, 93.572998%)" offset="0.171875"/><stop stop-opacity="1" stop-color="rgb(47.911072%, 53.675842%, 93.507385%)" offset="0.175781"/><stop stop-opacity="1" stop-color="rgb(47.862244%, 53.30658%, 93.441772%)" offset="0.179688"/><stop stop-opacity="1" stop-color="rgb(47.81189%, 52.935791%, 93.37616%)" offset="0.183594"/><stop stop-opacity="1" stop-color="rgb(47.761536%, 52.566528%, 93.312073%)" offset="0.1875"/><stop stop-opacity="1" stop-color="rgb(47.711182%, 52.197266%, 93.24646%)" offset="0.191406"/><stop stop-opacity="1" stop-color="rgb(47.662354%, 51.828003%, 93.180847%)" offset="0.195313"/><stop stop-opacity="1" stop-color="rgb(47.612%, 51.457214%, 93.115234%)" offset="0.199219"/><stop stop-opacity="1" stop-color="rgb(47.561646%, 51.087952%, 93.049622%)" offset="0.203125"/><stop stop-opacity="1" stop-color="rgb(47.511292%, 50.718689%, 92.984009%)" offset="0.207031"/><stop stop-opacity="1" stop-color="rgb(47.462463%, 50.349426%, 92.919922%)" offset="0.210938"/><stop stop-opacity="1" stop-color="rgb(47.412109%, 49.978638%, 92.854309%)" offset="0.214844"/><stop stop-opacity="1" stop-color="rgb(47.361755%, 49.609375%, 92.788696%)" offset="0.21875"/><stop stop-opacity="1" stop-color="rgb(47.311401%, 49.240112%, 92.723083%)" offset="0.222656"/><stop stop-opacity="1" stop-color="rgb(47.262573%, 48.87085%, 92.657471%)" offset="0.226563"/><stop stop-opacity="1" stop-color="rgb(47.212219%, 48.500061%, 92.591858%)" offset="0.230469"/><stop stop-opacity="1" stop-color="rgb(47.161865%, 48.130798%, 92.527771%)" offset="0.234375"/><stop stop-opacity="1" stop-color="rgb(47.111511%, 47.761536%, 92.462158%)" offset="0.238281"/><stop stop-opacity="1" stop-color="rgb(47.062683%, 47.392273%, 92.396545%)" offset="0.242188"/><stop stop-opacity="1" stop-color="rgb(47.012329%, 47.021484%, 92.330933%)" offset="0.246094"/><stop stop-opacity="1" stop-color="rgb(46.961975%, 46.652222%, 92.26532%)" offset="0.25"/><stop stop-opacity="1" stop-color="rgb(46.911621%, 46.282959%, 92.199707%)" offset="0.253906"/><stop stop-opacity="1" stop-color="rgb(46.862793%, 45.913696%, 92.13562%)" offset="0.257813"/><stop stop-opacity="1" stop-color="rgb(46.812439%, 45.542908%, 92.070007%)" offset="0.261719"/><stop stop-opacity="1" stop-color="rgb(46.762085%, 45.173645%, 92.004395%)" offset="0.265625"/><stop stop-opacity="1" stop-color="rgb(46.711731%, 44.804382%, 91.938782%)" offset="0.269531"/><stop stop-opacity="1" stop-color="rgb(46.662903%, 44.43512%, 91.873169%)" offset="0.273438"/><stop stop-opacity="1" stop-color="rgb(46.612549%, 44.064331%, 91.807556%)" offset="0.277344"/><stop stop-opacity="1" stop-color="rgb(46.562195%, 43.695068%, 91.743469%)" offset="0.28125"/><stop stop-opacity="1" stop-color="rgb(46.511841%, 43.325806%, 91.677856%)" offset="0.285156"/><stop stop-opacity="1" stop-color="rgb(46.463013%, 42.956543%, 91.612244%)" offset="0.289063"/><stop stop-opacity="1" stop-color="rgb(46.412659%, 42.585754%, 91.546631%)" offset="0.292969"/><stop stop-opacity="1" stop-color="rgb(46.362305%, 42.216492%, 91.482544%)" offset="0.296875"/><stop stop-opacity="1" stop-color="rgb(46.311951%, 41.847229%, 91.416931%)" offset="0.300781"/><stop stop-opacity="1" stop-color="rgb(46.263123%, 41.477966%, 91.351318%)" offset="0.304688"/><stop stop-opacity="1" stop-color="rgb(46.212769%, 41.107178%, 91.285706%)" offset="0.308594"/><stop stop-opacity="1" stop-color="rgb(46.162415%, 40.737915%, 91.220093%)" offset="0.3125"/><stop stop-opacity="1" stop-color="rgb(46.112061%, 40.368652%, 91.15448%)" offset="0.316406"/><stop stop-opacity="1" stop-color="rgb(46.063232%, 39.99939%, 91.090393%)" offset="0.320313"/><stop stop-opacity="1" stop-color="rgb(46.012878%, 39.628601%, 91.02478%)" offset="0.324219"/><stop stop-opacity="1" stop-color="rgb(45.962524%, 39.259338%, 90.959167%)" offset="0.328125"/><stop stop-opacity="1" stop-color="rgb(45.91217%, 38.890076%, 90.893555%)" offset="0.332031"/><stop stop-opacity="1" stop-color="rgb(45.863342%, 38.520813%, 90.827942%)" offset="0.335938"/><stop stop-opacity="1" stop-color="rgb(45.812988%, 38.150024%, 90.762329%)" offset="0.339844"/><stop stop-opacity="1" stop-color="rgb(45.762634%, 37.780762%, 90.698242%)" offset="0.34375"/><stop stop-opacity="1" stop-color="rgb(45.71228%, 37.409973%, 90.632629%)" offset="0.347656"/><stop stop-opacity="1" stop-color="rgb(45.663452%, 37.04071%, 90.567017%)" offset="0.351563"/><stop stop-opacity="1" stop-color="rgb(45.613098%, 36.671448%, 90.501404%)" offset="0.355469"/><stop stop-opacity="1" stop-color="rgb(45.562744%, 36.302185%, 90.435791%)" offset="0.359375"/><stop stop-opacity="1" stop-color="rgb(45.51239%, 35.931396%, 90.370178%)" offset="0.363281"/><stop stop-opacity="1" stop-color="rgb(45.463562%, 35.562134%, 90.306091%)" offset="0.367188"/><stop stop-opacity="1" stop-color="rgb(45.413208%, 35.192871%, 90.240479%)" offset="0.371094"/><stop stop-opacity="1" stop-color="rgb(45.362854%, 34.823608%, 90.174866%)" offset="0.375"/><stop stop-opacity="1" stop-color="rgb(45.3125%, 34.45282%, 90.109253%)" offset="0.378906"/><stop stop-opacity="1" stop-color="rgb(45.263672%, 34.083557%, 90.04364%)" offset="0.382813"/><stop stop-opacity="1" stop-color="rgb(45.213318%, 33.714294%, 89.978027%)" offset="0.386719"/><stop stop-opacity="1" stop-color="rgb(45.162964%, 33.345032%, 89.91394%)" offset="0.390625"/><stop stop-opacity="1" stop-color="rgb(45.11261%, 32.974243%, 89.848328%)" offset="0.394531"/><stop stop-opacity="1" stop-color="rgb(45.063782%, 32.60498%, 89.782715%)" offset="0.398438"/><stop stop-opacity="1" stop-color="rgb(45.013428%, 32.235718%, 89.717102%)" offset="0.402344"/><stop stop-opacity="1" stop-color="rgb(44.963074%, 31.866455%, 89.651489%)" offset="0.40625"/><stop stop-opacity="1" stop-color="rgb(44.91272%, 31.495667%, 89.585876%)" offset="0.410156"/><stop stop-opacity="1" stop-color="rgb(44.863892%, 31.126404%, 89.52179%)" offset="0.414063"/><stop stop-opacity="1" stop-color="rgb(44.813538%, 30.757141%, 89.456177%)" offset="0.417969"/><stop stop-opacity="1" stop-color="rgb(44.763184%, 30.387878%, 89.390564%)" offset="0.421875"/><stop stop-opacity="1" stop-color="rgb(44.71283%, 30.01709%, 89.324951%)" offset="0.425781"/><stop stop-opacity="1" stop-color="rgb(44.664001%, 29.647827%, 89.260864%)" offset="0.429688"/><stop stop-opacity="1" stop-color="rgb(44.613647%, 29.278564%, 89.195251%)" offset="0.433594"/><stop stop-opacity="1" stop-color="rgb(44.563293%, 28.909302%, 89.129639%)" offset="0.4375"/><stop stop-opacity="1" stop-color="rgb(44.512939%, 28.538513%, 89.064026%)" offset="0.441406"/><stop stop-opacity="1" stop-color="rgb(44.464111%, 28.16925%, 88.998413%)" offset="0.445312"/><stop stop-opacity="1" stop-color="rgb(44.413757%, 27.799988%, 88.9328%)" offset="0.449219"/><stop stop-opacity="1" stop-color="rgb(44.363403%, 27.430725%, 88.868713%)" offset="0.453125"/><stop stop-opacity="1" stop-color="rgb(44.313049%, 27.059937%, 88.803101%)" offset="0.457031"/><stop stop-opacity="1" stop-color="rgb(44.264221%, 26.690674%, 88.737488%)" offset="0.460938"/><stop stop-opacity="1" stop-color="rgb(44.213867%, 26.321411%, 88.671875%)" offset="0.464844"/><stop stop-opacity="1" stop-color="rgb(44.163513%, 25.952148%, 88.606262%)" offset="0.46875"/><stop stop-opacity="1" stop-color="rgb(44.113159%, 25.58136%, 88.540649%)" offset="0.472656"/><stop stop-opacity="1" stop-color="rgb(44.064331%, 25.212097%, 88.476562%)" offset="0.476562"/><stop stop-opacity="1" stop-color="rgb(44.013977%, 24.842834%, 88.41095%)" offset="0.480469"/><stop stop-opacity="1" stop-color="rgb(43.963623%, 24.473572%, 88.345337%)" offset="0.484375"/><stop stop-opacity="1" stop-color="rgb(43.913269%, 24.102783%, 88.279724%)" offset="0.488281"/><stop stop-opacity="1" stop-color="rgb(43.864441%, 23.733521%, 88.214111%)" offset="0.492188"/><stop stop-opacity="1" stop-color="rgb(43.814087%, 23.364258%, 88.148499%)" offset="0.496094"/><stop stop-opacity="1" stop-color="rgb(43.763733%, 22.994995%, 88.084412%)" offset="0.5"/><stop stop-opacity="1" stop-color="rgb(43.713379%, 22.624207%, 88.018799%)" offset="0.503906"/><stop stop-opacity="1" stop-color="rgb(43.664551%, 22.254944%, 87.953186%)" offset="0.507813"/><stop stop-opacity="1" stop-color="rgb(43.614197%, 21.885681%, 87.887573%)" offset="0.511719"/><stop stop-opacity="1" stop-color="rgb(43.563843%, 21.516418%, 87.82196%)" offset="0.515625"/><stop stop-opacity="1" stop-color="rgb(43.513489%, 21.14563%, 87.756348%)" offset="0.519531"/><stop stop-opacity="1" stop-color="rgb(43.464661%, 20.776367%, 87.692261%)" offset="0.523438"/><stop stop-opacity="1" stop-color="rgb(43.414307%, 20.407104%, 87.626648%)" offset="0.527344"/><stop stop-opacity="1" stop-color="rgb(43.363953%, 20.037842%, 87.561035%)" offset="0.53125"/><stop stop-opacity="1" stop-color="rgb(43.313599%, 19.667053%, 87.495422%)" offset="0.535156"/><stop stop-opacity="1" stop-color="rgb(43.264771%, 19.297791%, 87.42981%)" offset="0.539063"/><stop stop-opacity="1" stop-color="rgb(43.214417%, 18.928528%, 87.364197%)" offset="0.542969"/><stop stop-opacity="1" stop-color="rgb(43.164062%, 18.559265%, 87.30011%)" offset="0.546875"/><stop stop-opacity="1" stop-color="rgb(43.113708%, 18.188477%, 87.234497%)" offset="0.550781"/><stop stop-opacity="1" stop-color="rgb(43.06488%, 17.819214%, 87.168884%)" offset="0.554688"/><stop stop-opacity="1" stop-color="rgb(43.014526%, 17.449951%, 87.103271%)" offset="0.558594"/><stop stop-opacity="1" stop-color="rgb(42.964172%, 17.080688%, 87.037659%)" offset="0.5625"/><stop stop-opacity="1" stop-color="rgb(42.913818%, 16.7099%, 86.972046%)" offset="0.566406"/><stop stop-opacity="1" stop-color="rgb(42.86499%, 16.340637%, 86.907959%)" offset="0.570313"/><stop stop-opacity="1" stop-color="rgb(42.814636%, 15.971375%, 86.842346%)" offset="0.574219"/><stop stop-opacity="1" stop-color="rgb(42.764282%, 15.602112%, 86.776733%)" offset="0.578125"/><stop stop-opacity="1" stop-color="rgb(42.713928%, 15.231323%, 86.711121%)" offset="0.582031"/><stop stop-opacity="1" stop-color="rgb(42.6651%, 14.862061%, 86.647034%)" offset="0.585938"/><stop stop-opacity="1" stop-color="rgb(42.614746%, 14.492798%, 86.581421%)" offset="0.589844"/><stop stop-opacity="1" stop-color="rgb(42.564392%, 14.123535%, 86.515808%)" offset="0.59375"/><stop stop-opacity="1" stop-color="rgb(42.514038%, 13.752747%, 86.450195%)" offset="0.597656"/><stop stop-opacity="1" stop-color="rgb(42.46521%, 13.383484%, 86.384583%)" offset="0.601563"/><stop stop-opacity="1" stop-color="rgb(42.431641%, 13.140869%, 86.341858%)" offset="0.605469"/><stop stop-opacity="1" stop-color="rgb(42.399597%, 12.89978%, 86.299133%)" offset="0.609375"/><stop stop-opacity="1" stop-color="rgb(42.399597%, 12.89978%, 86.299133%)" offset="0.625"/><stop stop-opacity="1" stop-color="rgb(42.399597%, 12.89978%, 86.299133%)" offset="0.75"/><stop stop-opacity="1" stop-color="rgb(42.399597%, 12.89978%, 86.299133%)" offset="1"/></linearGradient></defs><g clip-path="url(#0c5d0ab058)"><path fill="#6c21dc" d="M 262.980469 190.882812 C 262.890625 156.347656 242.539062 127.640625 213.121094 116.988281 C 211.320312 116.339844 209.5 115.757812 207.660156 115.25 C 205.816406 114.738281 203.957031 114.300781 202.082031 113.929688 C 200.203125 113.5625 198.316406 113.269531 196.417969 113.042969 C 194.519531 112.820312 192.617188 112.667969 190.707031 112.59375 C 188.796875 112.515625 186.882812 112.507812 184.972656 112.578125 C 183.0625 112.644531 181.15625 112.785156 179.257812 113 C 177.359375 113.214844 175.46875 113.5 173.589844 113.855469 C 171.714844 114.214844 169.851562 114.644531 168.007812 115.144531 C 166.160156 115.644531 164.339844 116.214844 162.535156 116.855469 C 160.734375 117.496094 158.960938 118.203125 157.214844 118.976562 C 155.464844 119.753906 153.75 120.59375 152.066406 121.5 C 150.386719 122.40625 148.738281 123.378906 147.128906 124.410156 C 145.523438 125.441406 143.957031 126.535156 142.429688 127.6875 C 140.90625 128.839844 139.425781 130.046875 137.992188 131.3125 C 136.5625 132.578125 135.179688 133.894531 133.847656 135.265625 C 132.515625 136.636719 131.238281 138.058594 130.015625 139.527344 C 127.925781 142.011719 126.050781 144.652344 124.164062 147.359375 C 107.574219 170.832031 85.597656 174.679688 61.988281 158.242188 C 41.101562 143.679688 12.628906 151.398438 3.890625 174.027344 C 3.191406 175.832031 2.632812 177.6875 2.222656 179.582031 C 1.8125 181.476562 1.554688 183.394531 1.445312 185.328125 C 1.335938 187.265625 1.378906 189.199219 1.574219 191.128906 C 1.769531 193.058594 2.117188 194.960938 2.609375 196.835938 C 3.105469 198.710938 3.742188 200.535156 4.527344 202.3125 C 5.308594 204.085938 6.222656 205.789062 7.273438 207.421875 C 8.324219 209.050781 9.492188 210.589844 10.785156 212.039062 C 12.078125 213.484375 13.476562 214.824219 14.976562 216.050781 C 27.023438 225.9375 46.140625 226.5625 59.640625 218.742188 C 67.902344 213.949219 76.847656 208.667969 85.996094 207.449219 C 104.148438 205.039062 115.992188 215.882812 126.152344 230.128906 C 145.015625 256.527344 171.382812 267.308594 203.136719 260.652344 C 233.828125 254.242188 252.882812 234.21875 261.171875 204.152344 C 262.621094 198.730469 262.710938 192.910156 262.980469 190.882812 Z M 262.980469 190.882812 " fill-opacity="1" fill-rule="nonzero"/></g><g clip-path="url(#107439a4b9)"><g clip-path="url(#651dadbc28)"><path fill="url(#ef5f63cf75)" d="M 33.3125 37.5 L 33.3125 337.5 L 333.546875 337.5 L 333.546875 37.5 Z M 33.3125 37.5 " fill-rule="nonzero"/></g></g><g clip-path="url(#f3e98e1edf)"><g clip-path="url(#4bd84b8b81)"><path fill="url(#7cb280fa11)" d="M 112.308594 112.5 L 112.308594 267.308594 L 374.003906 267.308594 L 374.003906 112.5 Z M 112.308594 112.5 " fill-rule="nonzero"/></g></g><path fill="#ffffff" d="M 186.855469 160.460938 C 202.433594 160.269531 214.109375 171.5625 214.324219 187.050781 C 214.542969 202.539062 203.152344 214.320312 187.726562 214.539062 C 186.835938 214.570312 185.945312 214.5625 185.054688 214.503906 C 184.164062 214.449219 183.28125 214.347656 182.398438 214.203125 C 181.519531 214.054688 180.648438 213.867188 179.789062 213.632812 C 178.925781 213.398438 178.078125 213.125 177.246094 212.804688 C 176.414062 212.488281 175.597656 212.125 174.800781 211.726562 C 174.003906 211.324219 173.230469 210.882812 172.476562 210.40625 C 171.726562 209.925781 171 209.410156 170.300781 208.859375 C 169.597656 208.304688 168.929688 207.71875 168.289062 207.097656 C 167.648438 206.480469 167.039062 205.828125 166.464844 205.144531 C 165.886719 204.464844 165.347656 203.757812 164.84375 203.019531 C 164.339844 202.285156 163.875 201.523438 163.449219 200.742188 C 163.023438 199.960938 162.636719 199.15625 162.289062 198.335938 C 161.945312 197.511719 161.640625 196.675781 161.378906 195.824219 C 161.117188 194.972656 160.902344 194.109375 160.726562 193.234375 C 160.554688 192.359375 160.425781 191.480469 160.339844 190.589844 C 160.253906 189.703125 160.214844 188.816406 160.21875 187.921875 C 160.027344 172.449219 171.472656 160.652344 186.855469 160.460938 Z M 186.855469 160.460938 " fill-opacity="1" fill-rule="nonzero"/></svg>