<?xml version="1.0" encoding="UTF-8"?><svg id="Layer_2" xmlns="http://www.w3.org/2000/svg" viewBox="0 0 908.37 762.75"><defs><style>.cls-1{fill:#002b43;}.cls-2{fill:#000f16;}.cls-3{fill:#fff;}.cls-4{fill:#a8d7e9;}.cls-5{fill:#d5e9f2;}.cls-6{fill:#2085b7;}.cls-7{fill:#3aedb1;}</style></defs><g id="Layer_2-2"><g><ellipse class="cls-6" cx="378.51" cy="735.32" rx="175.62" ry="27.43"/><path class="cls-5" d="M517.51,167.51c-45.64-66.38-156.62-66.38-156.62-66.38,0,0-110.98,0-156.62,66.38-41.88,60.92-41.49,144.17-41.49,144.17l40.45,51.86h315.31l40.45-51.86s.4-83.25-41.49-144.17Z"/><path class="cls-4" d="M517.57,167.51c-17.89-26.02-45.83-41.84-73.18-51.46,14.15,8.81,27.03,20.03,36.88,34.35,41.88,60.92,41.49,144.17,41.49,144.17l-40.45,51.86H189.95l13.35,17.11h315.31l40.45-51.86s.4-83.25-41.49-144.17Z"/><path class="cls-1" d="M461.5,180.99c-42.52-32.15-158.69-32.15-201.22,0-46.17,34.91-44.6,118.24-44.6,118.24H506.1s1.57-83.33-44.6-118.24Z"/><path class="cls-2" d="M216.9,299.23c2.85-27.19,12.28-72.68,43.39-96.2,42.52-32.15,158.69-32.15,201.22,0,31.1,23.52,40.54,69.02,43.39,96.2h1.21s1.57-83.33-44.6-118.24c-42.52-32.15-158.69-32.15-201.22,0-46.17,34.91-44.6,118.24-44.6,118.24h1.21Z"/><path class="cls-5" d="M326.15,85.57h69.49c3.43,0,6.22,2.79,6.22,6.22v21.78c0,3.43-2.79,6.22-6.22,6.22h-69.49c-3.43,0-6.22-2.79-6.22-6.22v-21.78c0-3.43,2.79-6.22,6.22-6.22Z"/><g><polygon class="cls-5" points="342.39 102.16 351.73 15.04 364.17 15.04 379.39 102.68 342.39 102.16"/><path class="cls-5" d="M373.34,15.04c0,8.31-6.73,15.04-15.04,15.04s-15.04-6.73-15.04-15.04,6.73-15.04,15.04-15.04,15.04,6.73,15.04,15.04Z"/><path class="cls-4" d="M367.69,3.29c.96,1.98,1.5,4.21,1.5,6.56,0,8.31-6.73,15.04-15.04,15.04-3.55,0-6.81-1.23-9.39-3.29,2.44,5.02,7.58,8.48,13.54,8.48,8.31,0,15.04-6.73,15.04-15.04,0-4.75-2.21-8.99-5.65-11.75Z"/></g><polygon class="cls-4" points="203.24 363.54 518.55 363.54 559 311.68 162.79 311.68 203.24 363.54"/><path class="cls-4" d="M401.86,103.39c0,2.19-1.39,3.96-3.11,3.96h-34.75c-1.72,0-3.11-1.77-3.11-3.96v-13.86c0-2.19,1.39-3.96,3.11-3.96h34.75c1.72,0,3.11,1.77,3.11,3.96v13.86Z"/><path class="cls-3" d="M298.83,129.74c-5.05-9.67-27.92-4.13-35.39-.61-6.1,2.88-17.15,9.27-24.19,16.04-5.59,4.45-10.58,9.63-14.92,15.47-3.6,4.85-10.41,14.84-6.05,21.21,4.8,7,12.89,.93,16.92-3.11,10.47-10.53,18.51-21.8,32.71-28.21,6.98-3.15,36.87-9.39,30.92-20.79Z"/><path class="cls-3" d="M352.31,6.37c-7.08,1.71-4.37,16.51,4.34,8.54,6.93-6.33-.33-10.32-4.34-8.54Z"/><path class="cls-5" d="M575.81,481.02l-61.62-106.28H207.59l-61.62,106.28s2.64,44.29,17.5,84.77c22.85,62.23,44.63,87.12,44.63,87.12l75.42,29.13,76.68,7.05v.13s.51-.06,.69-.06,.69,.06,.69,.06v-.13l76.68-7.05,75.42-29.13s27.36-35.26,44.63-87.12c13.62-40.92,17.5-84.77,17.5-84.77Z"/><path class="cls-4" d="M514.19,374.74h-72.6l61.62,106.28s-3.88,43.85-17.5,84.77c-17.27,51.86-25,72.51-44.63,87.12-16.22,12.07-75.42,29.13-75.42,29.13l-41.06,3.78,35.62,3.27v.13s.51-.06,.69-.06,.69,.06,.69,.06v-.13l76.68-7.05,75.42-29.13s27.36-35.26,44.63-87.12c13.62-40.92,17.5-84.77,17.5-84.77l-61.62-106.28Z"/><polygon class="cls-4" points="145.97 481.02 575.81 481.02 559.06 512.89 145.97 481.02"/><path class="cls-3" d="M232.26,551.5c-1.22-15.42,9.31-36.68-8.3-44.83-9.04-4.18-24.32-5.9-31.32,3.08-2.58,3.31-3.88,7.47-4.12,11.79-2.52,11,3.4,27.09,6.16,36.95,3.26,11.61,14.55,52.43,35.34,41.31,14.17-7.58,3.13-36.89,2.23-48.31Z"/><path class="cls-3" d="M254.87,396.93c-9.35-13.34-22.5-8.9-31.87,.79-20.83,12.68-42.95,64.49-11.46,69.56,18.16,2.92,23.72-19.2,29.87-31.16,5.64-10.97,22.63-26.09,13.45-39.18Z"/><path class="cls-5" d="M532.06,374.74s134.83-83.81,160.76-83.81,15.56,46.67-25.93,97.65c-40.26,49.47-79.86,78.96-79.86,78.96l-54.97-92.8Z"/><path class="cls-4" d="M692.83,290.93c-2.59,0-6.27,.84-10.79,2.34-.74,18.23-14.49,47.98-40.03,79.37-27.64,33.96-54.97,58.51-69.39,70.56l14.42,24.34s39.61-29.49,79.86-78.96c41.49-50.98,51.86-97.65,25.93-97.65Z"/><path class="cls-5" d="M195.81,374.74S28.06,347.65,7.42,356.24c-20.65,8.59,3.29,45.41,53.45,75.65,48.67,29.34,77.01,37.33,77.01,37.33l57.93-94.48Z"/><path class="cls-4" d="M7.42,356.24c2.06-.86,5.28-1.35,9.38-1.55,6.72,15.48,27.65,36.59,58.53,55.21,33.41,20.14,58.79,31.74,82.02,27.57l-19.47,31.75s-28.34-7.99-77.01-37.33C10.71,401.65-13.23,364.83,7.42,356.24Z"/><path class="cls-3" d="M84.14,374.91c-4.76-7.56-21.61-12.09-29.54-11.67-4.08,.22-6.78,1.62-8.31,3.54-3.74,2.35-3.38,5.38-.66,8.41,1.3,2.7,3.95,5.01,7.59,5.76v-.14c15.48,8.59,42.95,13.22,30.92-5.91Z"/><path class="cls-3" d="M663.82,310.43c-3.55-2.32-13.84,2.91-16.77,4.35-4.89,2.4-17.52,10.35-20.15,17.93-2.94,3.97-3.45,7.88,1.4,10.29,7.32,3.64,27.69-12.86,32.11-18.29,2.75-3.39,8.27-11.1,3.41-14.29Z"/><path class="cls-5" d="M207.24,662.09s27.37,71.4,50.3,73.73c22.93,2.33,23.6-46.61,23.6-46.61l-73.9-27.12Z"/><path class="cls-4" d="M262.69,682.16c-.27,6.93-2.39,40.72-18.5,45,4.72,4.92,9.51,8.2,14.13,8.67,22.93,2.33,23.6-46.61,23.6-46.61l-19.23-7.06Z"/><path class="cls-5" d="M446.04,689.22s35.02,53.8,80.12,42.56c18.87-4.7-10.89-69.68-10.89-69.68l-69.23,27.12Z"/><path class="cls-4" d="M515.27,662.09l-18.78,7.36c7.57,19.02,19.52,54.24,5.81,57.66-3.7,.92-7.33,1.4-10.88,1.51,10.44,4.38,22.2,6.28,34.74,3.16,18.87-4.7-10.89-69.68-10.89-69.68Z"/><g><path class="cls-7" d="M313.85,232.6c-1.9,0-3.46-1.53-3.48-3.44,0-.02-.13-4.29-2.69-8.37-3.31-5.26-9.16-7.93-17.4-7.93h-.17c-17.78,.08-20.23,14.98-20.33,15.61-.29,1.9-2.06,3.21-3.96,2.93-1.9-.29-3.21-2.06-2.93-3.96,1.12-7.42,8.23-21.46,27.19-21.54,.06,0,.13,0,.2,0,26.48,0,27.05,22.95,27.06,23.18,.02,1.92-1.52,3.5-3.44,3.52-.01,0-.03,0-.04,0Z"/><path class="cls-7" d="M455.52,232.6c-1.9,0-3.46-1.53-3.48-3.44,0-.02-.13-4.29-2.69-8.37-3.31-5.26-9.16-7.93-17.4-7.93h-.17c-17.78,.08-20.23,14.98-20.33,15.61-.29,1.9-2.06,3.21-3.96,2.93-1.9-.29-3.21-2.06-2.93-3.96,1.12-7.42,8.23-21.46,27.19-21.54,.06,0,.13,0,.2,0,26.48,0,27.05,22.95,27.06,23.18,.02,1.92-1.52,3.5-3.44,3.52-.01,0-.03,0-.04,0Z"/></g><path class="cls-7" d="M376.16,263.34c0,10.86-6.27,19.67-14,19.67s-14-8.8-14-19.67,6.27-19.67,14-19.67,14,8.81,14,19.67Z"/><path class="cls-3" d="M595.02,248.84c-1.35-.17-2.67-.65-3.78-1.43-2.37-1.68-3.28-4.37-2.25-6.71l32-72.62c-18.63-21.1-27.26-45.46-24.36-68.95,7.25-58.59,82.94-97.63,168.73-87.01,85.79,10.62,149.68,66.92,142.43,125.51-7.25,58.59-82.94,97.63-168.73,87.01-20.47-2.53-39.99-7.65-58.09-15.23l-81.45,38.74c-1.38,.66-2.97,.88-4.52,.69ZM763.92,23.86c-77.92-9.64-146.56,24.91-153.01,77.03-2.69,21.71,5.53,43.47,23.76,62.93,1.57,1.67,2.01,3.86,1.17,5.77l-26.39,59.87,67.28-32c2.09-1,4.71-1.01,6.92-.03,17.58,7.76,36.72,12.96,56.88,15.46,77.92,9.64,146.56-24.91,153.01-77.03,6.45-52.12-51.7-102.36-129.61-112Z"/><g><path class="cls-3" d="M675.87,83.96c.74-4.32,3.65-6.53,7.63-5.85,3.98,.68,6,3.73,5.26,8.05l-4.76,27.93c-.74,4.32-3.65,6.53-7.63,5.85-3.98-.68-6-3.73-5.26-8.05l1.6-9.42-12.62-2.15-1.6,9.42c-.74,4.32-3.65,6.53-7.63,5.85-3.98-.68-6-3.73-5.26-8.05l4.76-27.93c.74-4.32,3.65-6.53,7.63-5.85,3.98,.68,6,3.73,5.27,8.05l-1.3,7.63,12.62,2.15,1.3-7.63Z"/><path class="cls-3" d="M697.29,89.11c.92-5.38,3.66-7.28,8.66-6.43l20.52,3.5c3.87,.66,5.28,2.86,4.8,5.66-.48,2.8-2.54,4.42-6.41,3.76l-14.97-2.55-.96,5.66,12,2.04c3.87,.66,5.28,2.86,4.8,5.67-.48,2.8-2.54,4.41-6.41,3.75l-12-2.04-1.1,6.45,15.59,2.66c3.87,.66,5.28,2.86,4.8,5.67-.48,2.8-2.54,4.41-6.41,3.75l-21.14-3.6c-4.99-.85-6.95-3.55-6.04-8.93l4.26-25.01Z"/><path class="cls-3" d="M760.42,122.77c3.31,.56,5.23,2.85,4.66,6.16-.56,3.31-3.13,4.83-6.44,4.27l-19.06-3.25c-4.99-.85-6.95-3.55-6.04-8.93l4.51-26.47c.74-4.32,3.65-6.53,7.63-5.85,3.98,.68,6,3.73,5.26,8.05l-4.04,23.72,13.51,2.3Z"/><path class="cls-3" d="M797.84,129.15c3.31,.56,5.23,2.85,4.66,6.16-.56,3.31-3.13,4.83-6.44,4.27l-19.06-3.25c-4.99-.85-6.95-3.55-6.04-8.93l4.51-26.47c.74-4.32,3.65-6.53,7.63-5.85,3.98,.68,6,3.73,5.27,8.05l-4.04,23.72,13.51,2.3Z"/><path class="cls-3" d="M832.84,103.32c10.71,1.83,19.66,10.56,17.26,24.7-2.49,14.63-13.64,19.43-24.46,17.59-10.82-1.84-19.75-10.06-17.26-24.69,2.41-14.13,13.75-19.41,24.46-17.59Zm-1.72,10.1c-5.38-.92-8.73,3.13-9.84,9.69-1.12,6.56,.7,11.48,6.08,12.4,5.38,.92,8.73-3.13,9.84-9.69,1.12-6.56-.7-11.49-6.08-12.4Z"/></g></g></g></svg>